<svg width="100pt" height="100pt" version="1.1" viewBox="0 0 100 100">
    <g>
        <path d="m50 88.602c42.898 0 42.898-0.5 42.898-19.301h-85.797c0 18.801 0.69922 19.301 42.898 19.301z"/>
        <path d="m95 58.801c0 3.6016-2.8984 6.5-6.5 6.5h-77c-3.6016 0-6.5-2.8984-6.5-6.5v-2.8984c0-3.6016 2.8984-6.5 6.5-6.5h76.898c3.6016 0 6.5 2.8984 6.5 6.5v2.8984z"/>
        <path class="rotate" d="m50 11.398c-23.699 0-42.898 15.199-42.898 33.898h85.699c0.097657-18.695-19.102-33.898-42.801-33.898zm-24.5 13.203c-0.80078 0-1.3984-0.60156-1.3984-1.3984 0-0.80078 0.60156-1.3984 1.3984-1.3984 0.80078 0 1.3984 0.60156 1.3984 1.3984s-0.59766 1.3984-1.3984 1.3984zm8.1992 6.1992c-0.80078 0-1.3984-0.60156-1.3984-1.3984 0-0.80078 0.60156-1.3984 1.3984-1.3984 0.80078 0 1.3984 0.60156 1.3984 1.3984 0.003906 0.79688-0.59766 1.3984-1.3984 1.3984zm8.1016-6.1992c-0.80078 0-1.3984-0.60156-1.3984-1.3984 0-0.80078 0.60156-1.3984 1.3984-1.3984 0.80078 0 1.3984 0.60156 1.3984 1.3984 0.10156 0.79688-0.59766 1.3984-1.3984 1.3984zm8.1992 6.1992c-0.80078 0-1.3984-0.60156-1.3984-1.3984 0-0.80078 0.59766-1.4023 1.3984-1.4023s1.3984 0.60156 1.3984 1.3984c0 0.80078-0.59766 1.4023-1.3984 1.4023zm0-12.301c-0.80078 0-1.3984-0.60156-1.3984-1.3984 0-0.80078 0.60156-1.3984 1.3984-1.3984 0.80078 0 1.3984 0.60156 1.3984 1.3984 0 0.79688-0.59766 1.3984-1.3984 1.3984zm8.1992 6.1016c-0.80078 0-1.3984-0.60156-1.3984-1.3984 0-0.80078 0.60156-1.3984 1.3984-1.3984 0.80078 0 1.3984 0.60156 1.3984 1.3984 0.003906 0.79688-0.69922 1.3984-1.3984 1.3984zm8.1016 6.1992c-0.80078 0-1.3984-0.60156-1.3984-1.3984 0-0.80078 0.60156-1.3984 1.3984-1.3984 0.80078 0 1.3984 0.60156 1.3984 1.3984s-0.59766 1.3984-1.3984 1.3984zm8.1992-6.1992c-0.80078 0-1.3984-0.60156-1.3984-1.3984 0-0.80078 0.60156-1.3984 1.3984-1.3984 0.80078 0 1.3984 0.60156 1.3984 1.3984s-0.69922 1.3984-1.3984 1.3984z"/>
    </g>
</svg>