<svg width="187" height="79" viewBox="0 0 187 79" fill="none" xmlns="http://www.w3.org/2000/svg">
        <g clip-path="url(#clip0_1203_2)">
        <path d="M15 45.2008C14.2 45.2008 13.5 45.5008 13 46.2008C12.5 46.9008 12.3 47.9008 12.3 49.1008C12.3 51.6008 13.3 52.9008 15.2 52.9008C15.8 52.9008 16.3 52.8008 16.9 52.7008C17.4 52.5008 18 52.3008 18.6 52.1008V55.1008C17.5 55.6008 16.3 55.8008 14.9 55.8008C12.9 55.8008 11.4 55.2008 10.3 54.1008C9.19995 52.9008 8.69995 51.3008 8.69995 49.1008C8.69995 47.7008 8.99995 46.5008 9.49995 45.5008C9.99995 44.5008 10.8 43.7008 11.7 43.1008C12.7 42.5008 13.8 42.3008 15.1 42.3008C16.5 42.3008 17.9 42.6008 19.2 43.2008L18 46.0008C17.5 45.8008 17 45.6008 16.5 45.4008C16 45.3008 15.5 45.2008 15 45.2008Z" fill="#245F49"/>
        <path d="M35.2999 49.0008C35.2999 51.2008 34.7999 52.9008 33.6999 54.1008C32.5999 55.3008 30.9999 55.8008 28.8999 55.8008C26.7999 55.8008 25.1999 55.2008 24.0999 54.1008C22.9999 52.9008 22.3999 51.2008 22.3999 49.0008C22.3999 46.8008 22.8999 45.1008 23.9999 44.0008C25.0999 42.8008 26.6999 42.3008 28.7999 42.3008C30.8999 42.3008 32.4999 42.9008 33.5999 44.0008C34.6999 45.1008 35.2999 46.8008 35.2999 49.0008ZM26.1999 49.0008C26.1999 51.6008 27.0999 52.8008 28.8999 52.8008C29.7999 52.8008 30.4999 52.5008 30.8999 51.9008C31.2999 51.3008 31.5999 50.3008 31.5999 49.0008C31.5999 47.7008 31.3999 46.7008 30.8999 46.1008C30.4999 45.5008 29.7999 45.2008 28.8999 45.2008C27.0999 45.2008 26.1999 46.5008 26.1999 49.0008Z" fill="#245F49"/>
        <path d="M45.3999 45.2008C44.5999 45.2008 43.8999 45.5008 43.3999 46.2008C42.8999 46.9008 42.6999 47.9008 42.6999 49.1008C42.6999 51.6008 43.6999 52.9008 45.5999 52.9008C46.1999 52.9008 46.6999 52.8008 47.2999 52.7008C47.7999 52.5008 48.3999 52.3008 48.9999 52.1008V55.1008C47.8999 55.6008 46.6999 55.8008 45.2999 55.8008C43.2999 55.8008 41.7999 55.2008 40.6999 54.1008C39.5999 52.9008 39.0999 51.3008 39.0999 49.1008C39.0999 47.7008 39.3999 46.5008 39.8999 45.5008C40.3999 44.5008 41.1999 43.7008 42.0999 43.1008C43.0999 42.5008 44.1999 42.3008 45.4999 42.3008C46.8999 42.3008 48.2999 42.6008 49.5999 43.2008L48.3999 46.0008C47.8999 45.8008 47.3999 45.6008 46.8999 45.4008C46.4999 45.3008 45.9999 45.2008 45.3999 45.2008Z" fill="#245F49"/>
        <path d="M65.7 49.0008C65.7 51.2008 65.2 52.9008 64.1 54.1008C63 55.3008 61.4 55.8008 59.3 55.8008C57.2 55.8008 55.6 55.2008 54.5 54.1008C53.4 52.9008 52.8 51.2008 52.8 49.0008C52.8 46.8008 53.3001 45.1008 54.4001 44.0008C55.5001 42.8008 57.1001 42.3008 59.2001 42.3008C61.3001 42.3008 62.9 42.9008 64 44.0008C65.2 45.1008 65.7 46.8008 65.7 49.0008ZM56.6 49.0008C56.6 51.6008 57.5 52.8008 59.3 52.8008C60.2 52.8008 60.9 52.5008 61.3 51.9008C61.7 51.3008 62 50.3008 62 49.0008C62 47.7008 61.8 46.7008 61.3 46.1008C60.9 45.5008 60.2 45.2008 59.3 45.2008C57.5 45.2008 56.6 46.5008 56.6 49.0008Z" fill="#245F49"/>
        <path d="M83.3 55.7H78.6L73.8 46.4H73.7C73.8 47.9 73.9 49 73.9 49.8V55.8H70.7V42.5H75.4L80.2 51.7H80.3C80.2 50.4 80.2 49.3 80.2 48.5V42.5H83.4V55.7H83.3Z" fill="#9BB449"/>
        <path d="M96.1 55.7004L95.4 53.2004H91.1L90.4 55.7004H86.5L90.8 42.4004H95.6L100 55.7004H96.1ZM94.7 50.3004L94.1 48.1004C94 47.6004 93.8 47.0004 93.6 46.2004C93.4 45.4004 93.3 44.9004 93.2 44.6004C93.1 44.9004 93 45.4004 92.9 46.1004C92.7 46.8004 92.4 48.2004 91.8 50.3004H94.7Z" fill="#9BB449"/>
        <path d="M109.1 55.7H105.5V45.4H102.3V42.5H112.3V45.4H109.1V55.7Z" fill="#9BB449"/>
        <path d="M115.4 54.2004C115.4 53.6004 115.6 53.2004 115.9 52.9004C116.2 52.6004 116.7 52.4004 117.3 52.4004C117.9 52.4004 118.4 52.6004 118.7 52.9004C119 53.2004 119.2 53.6004 119.2 54.2004C119.2 54.7004 119 55.2004 118.7 55.5004C118.4 55.8004 117.9 56.0004 117.3 56.0004C116.7 56.0004 116.2 55.8004 115.9 55.5004C115.5 55.1004 115.4 54.7004 115.4 54.2004Z" fill="#9BB449"/>
        <path d="M98.7 27.3125L94.8 11.8125L89.8 31.9125H94.4V37.1125H95.2V31.9125H97.5L97.1 33.6125H100.4V37.2125H101.2V33.6125H104.5L100.8 18.8125L98.7 27.3125ZM94.8 15.3125L95.4 17.6125H94.2L94.8 15.3125ZM94 18.4125H95.6L95.9 19.8125H93.6L94 18.4125ZM93.5 20.7125H96.1L96.4 22.1125H93.1L93.5 20.7125ZM92.9 22.9125H96.7L97 24.3125H92.5L92.9 22.9125ZM92.4 25.1125H97.3L97.6 26.5125H92L92.4 25.1125ZM91.8 27.3125H97.8L98.1 28.7125H91.4L91.8 27.3125ZM90.9 31.1125L91.3 29.6125H98.4L98.8 31.1125H90.9ZM103.4 32.7125H98.2L98.4 31.9125H103.2L103.4 32.7125ZM103 31.1125H99.6L99.4001 30.4125H102.8L103 31.1125ZM102.6 29.5125H99.2L99.1 29.0125L99.2 28.8125H102.5L102.6 29.5125ZM102.2 28.0125H99.4001L99.6 27.3125H102.1L102.2 28.0125ZM101.8 26.4125H99.7L99.9001 25.7125H101.6L101.8 26.4125ZM101.4 24.8125H100.1L100.3 24.1125H101.2L101.4 24.8125ZM100.5 23.3125L100.8 22.3125L101.1 23.3125H100.5Z" fill="#9BB449"/>
        <path d="M86.9999 31.9121H84.3999V34.7121H86.9999V31.9121ZM86.1999 33.9121H85.1999V32.7121H86.1999V33.9121Z" fill="#9BB449"/>
        <path d="M81.1 28.1113V22.0113H74.1V24.1113H73.7V24.9113H74.1V25.7113H73.7V26.5113H74.1V27.3113H73.7H72.2L71.8 18.1113C72.6 17.8113 73.2 17.0113 73.2 16.1113C73.2 15.1113 72.5 14.3113 71.6 14.0113L71.4 10.1113H70.6L70.4 14.0113C69.5 14.3113 68.8 15.1113 68.8 16.1113C68.8 17.0113 69.4 17.8113 70.2 18.1113L69.8 27.3113H68.4V29.7113H63V35.3113H68.4V37.4113H74.8V35.5113H79.1V37.4113H80.7H83.3H88.9V29.9113L84 25.1113L81.1 28.1113ZM68.5 31.4113H65.2V32.2113H68.5V32.8113H65.2V33.7113H68.5V34.7113H64V30.7113H68.5V31.4113ZM69.8 16.1113C69.8 15.4113 70.4 14.8113 71.1 14.8113C71.8 14.8113 72.4 15.4113 72.4 16.1113C72.4 16.8113 71.8 17.4113 71.1 17.4113C70.4 17.5113 69.8 16.9113 69.8 16.1113ZM71.4 27.4113H70.8L71.1 20.0113L71.4 27.4113ZM74.1 35.6113V36.7113H69.3V35.5113V29.9113V28.3113H73.7H74.1V35.6113ZM79.1 34.8113H74.9V33.1113H78.1V32.3113H74.9V31.5113H78.1V30.7113H74.9V29.9113H78.1V29.1113H74.9V28.3113H78.1V27.5113H74.9V26.7113H78.1V25.9113H74.9V25.1113H78.1V24.3113H74.9V23.0113H80.2V29.1113L79.1 30.0113V34.8113ZM82.5 36.7113H81.5V33.7113H82.5V36.7113ZM88.1 36.7113H83.4V32.9113H80.8V36.7113H80V30.6113H88.1V36.7113ZM80.6 29.8113L84.1 26.4113L87.6 29.8113H80.6Z" fill="#9BB449"/>
        <path d="M73.1001 29.0117H72.1001V29.8117H73.1001V29.0117Z" fill="#9BB449"/>
        <path d="M71.3 29.0117H70.3V29.8117H71.3V29.0117Z" fill="#9BB449"/>
        <path d="M73.1001 30.4121H72.1001V31.2121H73.1001V30.4121Z" fill="#9BB449"/>
        <path d="M71.3 30.4121H70.3V31.2121H71.3V30.4121Z" fill="#9BB449"/>
        <path d="M73.1001 31.8125H72.1001V32.6125H73.1001V31.8125Z" fill="#9BB449"/>
        <path d="M71.3 31.8125H70.3V32.6125H71.3V31.8125Z" fill="#9BB449"/>
        <path d="M73.1001 33.2109H72.1001V34.0109H73.1001V33.2109Z" fill="#9BB449"/>
        <path d="M71.3 33.2109H70.3V34.0109H71.3V33.2109Z" fill="#9BB449"/>
        <path d="M73.1001 34.5117H72.1001V35.3117H73.1001V34.5117Z" fill="#9BB449"/>
        <path d="M71.3 34.5117H70.3V35.3117H71.3V34.5117Z" fill="#9BB449"/>
        <path d="M112.8 24.8125C110.9 24.8125 109.3 26.2125 109 28.0125C108.8 28.0125 108.7 28.0125 108.5 28.0125C106.7 28.0125 105.3 29.4125 105.3 31.2125C105.3 32.8125 106.5 34.2125 108.1 34.4125V37.2125H108.9V34.4125C110.1 34.2125 111 33.5125 111.5 32.4125C111.8 32.5125 112.1 32.6125 112.4 32.6125V37.2125H113.2V32.6125C115.1 32.4125 116.6 30.8125 116.6 28.8125C116.7 26.6125 114.9 24.8125 112.8 24.8125ZM110.8 31.7125C110.6 32.8125 109.6 33.6125 108.5 33.6125C107.2 33.6125 106.1 32.5125 106.1 31.2125C106.1 29.9125 107.2 28.8125 108.5 28.8125C108.7 28.8125 108.9 28.8125 109.1 28.9125H109.2C109.7 29.0125 110 29.3125 110.3 29.7125C110.3 29.7125 110.3 29.7125 110.4 29.8125C110.4 29.9125 110.5 29.9125 110.5 30.0125C110.5 30.1125 110.6 30.1125 110.6 30.2125C110.6 30.3125 110.6 30.3125 110.7 30.4125C110.7 30.5125 110.8 30.6125 110.8 30.7125V30.8125C110.8 30.9125 110.8 31.1125 110.8 31.2125C110.9 31.3125 110.9 31.5125 110.8 31.7125ZM112.8 31.7125C112.4 31.7125 112 31.6125 111.7 31.5125C111.7 31.4125 111.7 31.3125 111.7 31.1125C111.7 31.0125 111.7 30.8125 111.7 30.7125V30.6125C111.7 30.5125 111.7 30.3125 111.6 30.2125C111.6 30.1125 111.5 29.9125 111.4 29.8125C111.1 29.1125 110.5 28.6125 109.8 28.3125C110 26.8125 111.3 25.7125 112.8 25.7125C114.5 25.7125 115.8 27.1125 115.8 28.7125C115.8 30.4125 114.5 31.7125 112.8 31.7125Z" fill="#9BB449"/>
        <path d="M82.4001 18.8116C82.6001 18.9116 82.8001 18.8116 82.9001 18.6116C88.0001 9.61159 98.7001 5.51159 108.5 8.91159C118.2 12.2116 124.1 22.0116 122.7 32.2116C122.7 32.4116 122.8 32.6116 123 32.6116C123 32.6116 123 32.6116 123.1 32.6116C123.3 32.6116 123.5 32.5116 123.5 32.3116C125 21.8116 118.8 11.7116 108.8 8.21159C98.7001 4.71159 87.5001 9.01159 82.3001 18.3116C82.2001 18.5116 82.2001 18.7116 82.4001 18.8116Z" fill="#9BB449"/>
        <path d="M120.5 33.2109L122.1 35.9109L124.8 34.4109L120.5 33.2109Z" fill="#9BB449"/>
        <path d="M131.713 52.2334C131.713 53.0374 131.519 53.7363 131.129 54.3301C130.739 54.9238 130.17 55.3815 129.422 55.7031C128.68 56.0247 127.777 56.1855 126.713 56.1855C126.243 56.1855 125.782 56.1546 125.331 56.0928C124.885 56.0309 124.455 55.9412 124.041 55.8237C123.633 55.7 123.243 55.5485 122.872 55.3691V52.6973C123.515 52.9818 124.183 53.2384 124.876 53.4673C125.569 53.6961 126.255 53.8105 126.936 53.8105C127.406 53.8105 127.783 53.7487 128.067 53.625C128.358 53.5013 128.568 53.3312 128.698 53.1147C128.828 52.8983 128.893 52.6509 128.893 52.3726C128.893 52.0324 128.779 51.7417 128.55 51.5005C128.321 51.2593 128.006 51.0335 127.604 50.8232C127.208 50.613 126.759 50.3872 126.258 50.146C125.943 49.9976 125.6 49.8182 125.229 49.6079C124.857 49.3914 124.505 49.1286 124.171 48.8193C123.837 48.5101 123.562 48.1359 123.345 47.6968C123.135 47.2515 123.03 46.7196 123.03 46.1011C123.03 45.2909 123.215 44.5981 123.586 44.0229C123.958 43.4478 124.486 43.0086 125.173 42.7056C125.866 42.3963 126.682 42.2417 127.622 42.2417C128.327 42.2417 128.998 42.3252 129.635 42.4922C130.278 42.653 130.95 42.888 131.648 43.1973L130.721 45.4331C130.096 45.1795 129.536 44.9847 129.042 44.8486C128.547 44.7064 128.043 44.6353 127.529 44.6353C127.171 44.6353 126.864 44.694 126.611 44.8115C126.357 44.9229 126.166 45.0837 126.036 45.2939C125.906 45.498 125.841 45.7362 125.841 46.0083C125.841 46.3299 125.934 46.6021 126.119 46.8247C126.311 47.0412 126.595 47.2515 126.973 47.4556C127.356 47.6597 127.832 47.8978 128.401 48.1699C129.094 48.4977 129.685 48.841 130.173 49.1997C130.668 49.5522 131.049 49.9697 131.314 50.4521C131.58 50.9284 131.713 51.5221 131.713 52.2334ZM138.504 42.4365C140.255 42.4365 141.532 42.8138 142.336 43.5684C143.14 44.3167 143.542 45.3496 143.542 46.667C143.542 47.2607 143.452 47.8298 143.273 48.374C143.094 48.9121 142.8 49.3914 142.392 49.812C141.99 50.2326 141.451 50.5666 140.777 50.814C140.103 51.0552 139.271 51.1758 138.282 51.1758H137.048V56H134.172V42.4365H138.504ZM138.356 44.793H137.048V48.8193H137.994C138.532 48.8193 138.999 48.7482 139.395 48.606C139.791 48.4637 140.097 48.241 140.313 47.938C140.53 47.6349 140.638 47.2453 140.638 46.769C140.638 46.1011 140.453 45.6063 140.082 45.2847C139.71 44.9569 139.135 44.793 138.356 44.793ZM154.406 56L153.422 52.7715H148.478L147.494 56H144.396L149.183 42.3809H152.699L157.504 56H154.406ZM152.736 50.3594L151.752 47.2051C151.691 46.9948 151.607 46.7257 151.502 46.3979C151.403 46.064 151.301 45.7269 151.196 45.3867C151.097 45.0404 151.016 44.7404 150.955 44.4868C150.893 44.7404 150.806 45.0558 150.695 45.4331C150.59 45.8042 150.488 46.1567 150.389 46.4907C150.29 46.8247 150.219 47.0628 150.175 47.2051L149.201 50.3594H152.736ZM164.982 44.6353C164.431 44.6353 163.943 44.7435 163.516 44.96C163.096 45.1702 162.74 45.4764 162.449 45.8784C162.165 46.2804 161.948 46.766 161.8 47.335C161.651 47.904 161.577 48.5441 161.577 49.2554C161.577 50.214 161.695 51.0335 161.93 51.7139C162.171 52.388 162.542 52.9045 163.043 53.2632C163.544 53.6157 164.19 53.792 164.982 53.792C165.532 53.792 166.083 53.7301 166.633 53.6064C167.19 53.4827 167.793 53.3065 168.442 53.0776V55.4897C167.842 55.7371 167.252 55.9134 166.67 56.0186C166.089 56.1299 165.437 56.1855 164.713 56.1855C163.315 56.1855 162.165 55.8979 161.262 55.3228C160.365 54.7414 159.7 53.9312 159.267 52.8921C158.834 51.8468 158.618 50.6284 158.618 49.2368C158.618 48.2101 158.757 47.27 159.035 46.4165C159.313 45.563 159.722 44.8239 160.26 44.1992C160.798 43.5745 161.463 43.0921 162.254 42.752C163.046 42.4118 163.955 42.2417 164.982 42.2417C165.656 42.2417 166.33 42.3283 167.004 42.5015C167.685 42.6685 168.334 42.9004 168.953 43.1973L168.025 45.5352C167.518 45.2939 167.007 45.0837 166.494 44.9043C165.981 44.7249 165.477 44.6353 164.982 44.6353ZM179.148 56H171.337V42.4365H179.148V44.793H174.213V47.771H178.805V50.1274H174.213V53.625H179.148V56Z" fill="#797A6F"/>
        <path d="M60.8789 68.4141C60.8789 68.7526 60.7969 69.0469 60.6328 69.2969C60.4688 69.5469 60.2292 69.7396 59.9141 69.875C59.6016 70.0104 59.2214 70.0781 58.7734 70.0781C58.5755 70.0781 58.3815 70.0651 58.1914 70.0391C58.0039 70.013 57.8229 69.9753 57.6484 69.9258C57.4766 69.8737 57.3125 69.8099 57.1562 69.7344V68.6094C57.4271 68.7292 57.7083 68.8372 58 68.9336C58.2917 69.0299 58.5807 69.0781 58.8672 69.0781C59.0651 69.0781 59.224 69.0521 59.3438 69C59.4661 68.9479 59.5547 68.8763 59.6094 68.7852C59.6641 68.694 59.6914 68.5898 59.6914 68.4727C59.6914 68.3294 59.6432 68.207 59.5469 68.1055C59.4505 68.0039 59.3177 67.9089 59.1484 67.8203C58.9818 67.7318 58.793 67.6367 58.582 67.5352C58.4492 67.4727 58.3047 67.3971 58.1484 67.3086C57.9922 67.2174 57.8438 67.1068 57.7031 66.9766C57.5625 66.8464 57.4466 66.6888 57.3555 66.5039C57.2669 66.3164 57.2227 66.0924 57.2227 65.832C57.2227 65.4909 57.3008 65.1992 57.457 64.957C57.6133 64.7148 57.8359 64.5299 58.125 64.4023C58.4167 64.2721 58.7604 64.207 59.1562 64.207C59.4531 64.207 59.7357 64.2422 60.0039 64.3125C60.2747 64.3802 60.5573 64.4792 60.8516 64.6094L60.4609 65.5508C60.1979 65.444 59.9622 65.362 59.7539 65.3047C59.5456 65.2448 59.3333 65.2148 59.1172 65.2148C58.9661 65.2148 58.8372 65.2396 58.7305 65.2891C58.6237 65.3359 58.543 65.4036 58.4883 65.4922C58.4336 65.5781 58.4062 65.6784 58.4062 65.793C58.4062 65.9284 58.4453 66.043 58.5234 66.1367C58.6042 66.2279 58.724 66.3164 58.8828 66.4023C59.0443 66.4883 59.2448 66.5885 59.4844 66.7031C59.776 66.8411 60.0247 66.9857 60.2305 67.1367C60.4388 67.2852 60.599 67.4609 60.7109 67.6641C60.8229 67.8646 60.8789 68.1146 60.8789 68.4141ZM66.9492 65.5508C67.444 65.5508 67.8177 65.6784 68.0703 65.9336C68.3255 66.1862 68.4531 66.5924 68.4531 67.1523V70H67.2578V67.4492C67.2578 67.1367 67.2044 66.901 67.0977 66.7422C66.9909 66.5833 66.8255 66.5039 66.6016 66.5039C66.2865 66.5039 66.0625 66.6172 65.9297 66.8438C65.7969 67.0677 65.7305 67.3893 65.7305 67.8086V70H64.5391V67.4492C64.5391 67.2409 64.5156 67.0664 64.4688 66.9258C64.4219 66.7852 64.3503 66.6797 64.2539 66.6094C64.1576 66.5391 64.0339 66.5039 63.8828 66.5039C63.6615 66.5039 63.487 66.5599 63.3594 66.6719C63.2344 66.7812 63.1445 66.944 63.0898 67.1602C63.0378 67.3737 63.0117 67.6354 63.0117 67.9453V70H61.8203V65.6328H62.7305L62.8906 66.1914H62.957C63.0456 66.0404 63.1562 65.918 63.2891 65.8242C63.4245 65.7305 63.5729 65.6615 63.7344 65.6172C63.8958 65.5729 64.0599 65.5508 64.2266 65.5508C64.5469 65.5508 64.8177 65.6029 65.0391 65.707C65.263 65.8112 65.4349 65.9727 65.5547 66.1914H65.6602C65.7904 65.9674 65.974 65.8047 66.2109 65.7031C66.4505 65.6016 66.6966 65.5508 66.9492 65.5508ZM71.4688 65.543C72.0547 65.543 72.5039 65.6706 72.8164 65.9258C73.1289 66.181 73.2852 66.569 73.2852 67.0898V70H72.4531L72.2227 69.4062H72.1914C72.0664 69.5625 71.9388 69.6901 71.8086 69.7891C71.6784 69.888 71.5286 69.9609 71.3594 70.0078C71.1901 70.0547 70.9844 70.0781 70.7422 70.0781C70.4844 70.0781 70.2526 70.0286 70.0469 69.9297C69.8438 69.8307 69.6836 69.6797 69.5664 69.4766C69.4492 69.2708 69.3906 69.0104 69.3906 68.6953C69.3906 68.2318 69.5534 67.8906 69.8789 67.6719C70.2044 67.4505 70.6927 67.3281 71.3438 67.3047L72.1016 67.2812V67.0898C72.1016 66.8607 72.0417 66.6927 71.9219 66.5859C71.8021 66.4792 71.6354 66.4258 71.4219 66.4258C71.2109 66.4258 71.0039 66.4557 70.8008 66.5156C70.5977 66.5755 70.3945 66.651 70.1914 66.7422L69.7969 65.9375C70.0286 65.8151 70.2878 65.7188 70.5742 65.6484C70.8633 65.5781 71.1615 65.543 71.4688 65.543ZM72.1016 67.9766L71.6406 67.9922C71.2552 68.0026 70.987 68.0716 70.8359 68.1992C70.6875 68.3268 70.6133 68.4948 70.6133 68.7031C70.6133 68.8854 70.6667 69.0156 70.7734 69.0938C70.8802 69.1693 71.0195 69.207 71.1914 69.207C71.4466 69.207 71.6615 69.1315 71.8359 68.9805C72.013 68.8294 72.1016 68.6146 72.1016 68.3359V67.9766ZM76.9531 65.5508C77.013 65.5508 77.082 65.5547 77.1602 65.5625C77.2409 65.5677 77.306 65.5755 77.3555 65.5859L77.2656 66.7031C77.2266 66.6901 77.1706 66.681 77.0977 66.6758C77.0273 66.668 76.9661 66.6641 76.9141 66.6641C76.7604 66.6641 76.6107 66.6836 76.4648 66.7227C76.3216 66.7617 76.1927 66.8255 76.0781 66.9141C75.9635 67 75.8724 67.1146 75.8047 67.2578C75.7396 67.3984 75.707 67.5716 75.707 67.7773V70H74.5156V65.6328H75.418L75.5938 66.3672H75.6523C75.7383 66.2188 75.8451 66.0833 75.9727 65.9609C76.1029 65.8359 76.25 65.737 76.4141 65.6641C76.5807 65.5885 76.7604 65.5508 76.9531 65.5508ZM79.9883 69.1289C80.1185 69.1289 80.2448 69.1159 80.3672 69.0898C80.4922 69.0638 80.6159 69.0312 80.7383 68.9922V69.8789C80.6107 69.9362 80.4518 69.9831 80.2617 70.0195C80.0742 70.0586 79.8685 70.0781 79.6445 70.0781C79.3841 70.0781 79.1497 70.0365 78.9414 69.9531C78.7357 69.8672 78.5729 69.7201 78.4531 69.5117C78.3359 69.3008 78.2773 69.0078 78.2773 68.6328V66.5273H77.707V66.0234L78.3633 65.625L78.707 64.7031H79.4688V65.6328H80.6914V66.5273H79.4688V68.6328C79.4688 68.7995 79.5156 68.9245 79.6094 69.0078C79.7057 69.0885 79.832 69.1289 79.9883 69.1289ZM88.5352 67.0898C88.5352 67.7331 88.4115 68.2708 88.1641 68.7031C87.9193 69.1328 87.5638 69.457 87.0977 69.6758C86.6315 69.8919 86.0703 70 85.4141 70H83.7969V64.2891H85.5898C86.1888 64.2891 86.7083 64.3958 87.1484 64.6094C87.5885 64.8203 87.9297 65.1341 88.1719 65.5508C88.4141 65.9648 88.5352 66.4779 88.5352 67.0898ZM87.2773 67.1211C87.2773 66.6992 87.2148 66.3529 87.0898 66.082C86.9674 65.8086 86.7852 65.6068 86.543 65.4766C86.3034 65.3464 86.0065 65.2812 85.6523 65.2812H85.0078V69H85.5273C86.1185 69 86.5573 68.8424 86.8438 68.5273C87.1328 68.2122 87.2773 67.7435 87.2773 67.1211ZM90.8164 65.6328V70H89.625V65.6328H90.8164ZM90.2227 63.9219C90.3997 63.9219 90.5521 63.9635 90.6797 64.0469C90.8073 64.1276 90.8711 64.2799 90.8711 64.5039C90.8711 64.7253 90.8073 64.8789 90.6797 64.9648C90.5521 65.0482 90.3997 65.0898 90.2227 65.0898C90.043 65.0898 89.8893 65.0482 89.7617 64.9648C89.6367 64.8789 89.5742 64.7253 89.5742 64.5039C89.5742 64.2799 89.6367 64.1276 89.7617 64.0469C89.8893 63.9635 90.043 63.9219 90.2227 63.9219ZM93.3477 71.9219C92.7383 71.9219 92.2721 71.8151 91.9492 71.6016C91.6289 71.3906 91.4688 71.0938 91.4688 70.7109C91.4688 70.4479 91.5508 70.2279 91.7148 70.0508C91.8789 69.8737 92.1198 69.7474 92.4375 69.6719C92.3151 69.6198 92.2083 69.5352 92.1172 69.418C92.026 69.2982 91.9805 69.1719 91.9805 69.0391C91.9805 68.8724 92.0286 68.7344 92.125 68.625C92.2214 68.513 92.3607 68.4036 92.543 68.2969C92.3138 68.1979 92.1315 68.0391 91.9961 67.8203C91.8633 67.6016 91.7969 67.3438 91.7969 67.0469C91.7969 66.7292 91.8659 66.4596 92.0039 66.2383C92.1445 66.0143 92.3477 65.8438 92.6133 65.7266C92.8815 65.6094 93.207 65.5508 93.5898 65.5508C93.6706 65.5508 93.7643 65.556 93.8711 65.5664C93.9779 65.5768 94.0755 65.5885 94.1641 65.6016C94.2552 65.6146 94.3164 65.625 94.3477 65.6328H95.8711V66.2383L95.1875 66.4141C95.25 66.5104 95.2969 66.6133 95.3281 66.7227C95.3594 66.832 95.375 66.9479 95.375 67.0703C95.375 67.5391 95.2109 67.9049 94.8828 68.168C94.5573 68.4284 94.1042 68.5586 93.5234 68.5586C93.3854 68.5508 93.2552 68.5404 93.1328 68.5273C93.0729 68.5742 93.0273 68.6237 92.9961 68.6758C92.9648 68.7279 92.9492 68.7826 92.9492 68.8398C92.9492 68.8971 92.9727 68.9453 93.0195 68.9844C93.069 69.0208 93.1419 69.0495 93.2383 69.0703C93.3372 69.0885 93.4596 69.0977 93.6055 69.0977H94.3477C94.8268 69.0977 95.1914 69.2005 95.4414 69.4062C95.694 69.612 95.8203 69.9141 95.8203 70.3125C95.8203 70.8229 95.6068 71.2188 95.1797 71.5C94.7552 71.7812 94.1445 71.9219 93.3477 71.9219ZM93.3984 71.1445C93.6823 71.1445 93.9258 71.1172 94.1289 71.0625C94.3346 71.0104 94.4922 70.9349 94.6016 70.8359C94.7109 70.7396 94.7656 70.6237 94.7656 70.4883C94.7656 70.3789 94.7331 70.2917 94.668 70.2266C94.6055 70.1641 94.5091 70.1198 94.3789 70.0938C94.2513 70.0677 94.0872 70.0547 93.8867 70.0547H93.2695C93.1237 70.0547 92.9922 70.0781 92.875 70.125C92.7604 70.1719 92.6693 70.237 92.6016 70.3203C92.5339 70.4062 92.5 70.5052 92.5 70.6172C92.5 70.7812 92.5781 70.9102 92.7344 71.0039C92.8932 71.0977 93.1146 71.1445 93.3984 71.1445ZM93.5898 67.832C93.8138 67.832 93.9779 67.763 94.082 67.625C94.1862 67.487 94.2383 67.2995 94.2383 67.0625C94.2383 66.7995 94.1836 66.6029 94.0742 66.4727C93.9674 66.3398 93.806 66.2734 93.5898 66.2734C93.3711 66.2734 93.207 66.3398 93.0977 66.4727C92.9883 66.6029 92.9336 66.7995 92.9336 67.0625C92.9336 67.2995 92.987 67.487 93.0938 67.625C93.2031 67.763 93.3685 67.832 93.5898 67.832ZM97.7852 65.6328V70H96.5938V65.6328H97.7852ZM97.1914 63.9219C97.3685 63.9219 97.5208 63.9635 97.6484 64.0469C97.776 64.1276 97.8398 64.2799 97.8398 64.5039C97.8398 64.7253 97.776 64.8789 97.6484 64.9648C97.5208 65.0482 97.3685 65.0898 97.1914 65.0898C97.0117 65.0898 96.8581 65.0482 96.7305 64.9648C96.6055 64.8789 96.543 64.7253 96.543 64.5039C96.543 64.2799 96.6055 64.1276 96.7305 64.0469C96.8581 63.9635 97.0117 63.9219 97.1914 63.9219ZM100.879 69.1289C101.009 69.1289 101.135 69.1159 101.258 69.0898C101.383 69.0638 101.507 69.0312 101.629 68.9922V69.8789C101.501 69.9362 101.342 69.9831 101.152 70.0195C100.965 70.0586 100.759 70.0781 100.535 70.0781C100.275 70.0781 100.04 70.0365 99.832 69.9531C99.6263 69.8672 99.4635 69.7201 99.3438 69.5117C99.2266 69.3008 99.168 69.0078 99.168 68.6328V66.5273H98.5977V66.0234L99.2539 65.625L99.5977 64.7031H100.359V65.6328H101.582V66.5273H100.359V68.6328C100.359 68.7995 100.406 68.9245 100.5 69.0078C100.596 69.0885 100.723 69.1289 100.879 69.1289ZM104.305 65.543C104.891 65.543 105.34 65.6706 105.652 65.9258C105.965 66.181 106.121 66.569 106.121 67.0898V70H105.289L105.059 69.4062H105.027C104.902 69.5625 104.775 69.6901 104.645 69.7891C104.514 69.888 104.365 69.9609 104.195 70.0078C104.026 70.0547 103.82 70.0781 103.578 70.0781C103.32 70.0781 103.089 70.0286 102.883 69.9297C102.68 69.8307 102.52 69.6797 102.402 69.4766C102.285 69.2708 102.227 69.0104 102.227 68.6953C102.227 68.2318 102.389 67.8906 102.715 67.6719C103.04 67.4505 103.529 67.3281 104.18 67.3047L104.938 67.2812V67.0898C104.938 66.8607 104.878 66.6927 104.758 66.5859C104.638 66.4792 104.471 66.4258 104.258 66.4258C104.047 66.4258 103.84 66.4557 103.637 66.5156C103.434 66.5755 103.23 66.651 103.027 66.7422L102.633 65.9375C102.865 65.8151 103.124 65.7188 103.41 65.6484C103.699 65.5781 103.997 65.543 104.305 65.543ZM104.938 67.9766L104.477 67.9922C104.091 68.0026 103.823 68.0716 103.672 68.1992C103.523 68.3268 103.449 68.4948 103.449 68.7031C103.449 68.8854 103.503 69.0156 103.609 69.0938C103.716 69.1693 103.855 69.207 104.027 69.207C104.283 69.207 104.497 69.1315 104.672 68.9805C104.849 68.8294 104.938 68.6146 104.938 68.3359V67.9766ZM108.543 70H107.352V63.9219H108.543V70ZM114.172 70H112.961V65.2969H111.41V64.2891H115.723V65.2969H114.172V70ZM120.477 67.8086C120.477 68.1732 120.427 68.4961 120.328 68.7773C120.232 69.0586 120.09 69.2969 119.902 69.4922C119.717 69.6849 119.493 69.8307 119.23 69.9297C118.97 70.0286 118.676 70.0781 118.348 70.0781C118.04 70.0781 117.758 70.0286 117.5 69.9297C117.245 69.8307 117.022 69.6849 116.832 69.4922C116.645 69.2969 116.499 69.0586 116.395 68.7773C116.293 68.4961 116.242 68.1732 116.242 67.8086C116.242 67.3242 116.328 66.9141 116.5 66.5781C116.672 66.2422 116.917 65.987 117.234 65.8125C117.552 65.638 117.931 65.5508 118.371 65.5508C118.78 65.5508 119.142 65.638 119.457 65.8125C119.775 65.987 120.023 66.2422 120.203 66.5781C120.385 66.9141 120.477 67.3242 120.477 67.8086ZM117.457 67.8086C117.457 68.0951 117.488 68.3359 117.551 68.5312C117.613 68.7266 117.711 68.8737 117.844 68.9727C117.977 69.0716 118.15 69.1211 118.363 69.1211C118.574 69.1211 118.745 69.0716 118.875 68.9727C119.008 68.8737 119.104 68.7266 119.164 68.5312C119.227 68.3359 119.258 68.0951 119.258 67.8086C119.258 67.5195 119.227 67.2799 119.164 67.0898C119.104 66.8971 119.008 66.7526 118.875 66.6562C118.742 66.5599 118.569 66.5117 118.355 66.5117C118.04 66.5117 117.811 66.6198 117.668 66.8359C117.527 67.0521 117.457 67.3763 117.457 67.8086ZM125.43 67.8086C125.43 68.1732 125.38 68.4961 125.281 68.7773C125.185 69.0586 125.043 69.2969 124.855 69.4922C124.671 69.6849 124.447 69.8307 124.184 69.9297C123.923 70.0286 123.629 70.0781 123.301 70.0781C122.993 70.0781 122.711 70.0286 122.453 69.9297C122.198 69.8307 121.975 69.6849 121.785 69.4922C121.598 69.2969 121.452 69.0586 121.348 68.7773C121.246 68.4961 121.195 68.1732 121.195 67.8086C121.195 67.3242 121.281 66.9141 121.453 66.5781C121.625 66.2422 121.87 65.987 122.188 65.8125C122.505 65.638 122.884 65.5508 123.324 65.5508C123.733 65.5508 124.095 65.638 124.41 65.8125C124.728 65.987 124.977 66.2422 125.156 66.5781C125.339 66.9141 125.43 67.3242 125.43 67.8086ZM122.41 67.8086C122.41 68.0951 122.441 68.3359 122.504 68.5312C122.566 68.7266 122.664 68.8737 122.797 68.9727C122.93 69.0716 123.103 69.1211 123.316 69.1211C123.527 69.1211 123.698 69.0716 123.828 68.9727C123.961 68.8737 124.057 68.7266 124.117 68.5312C124.18 68.3359 124.211 68.0951 124.211 67.8086C124.211 67.5195 124.18 67.2799 124.117 67.0898C124.057 66.8971 123.961 66.7526 123.828 66.6562C123.695 66.5599 123.522 66.5117 123.309 66.5117C122.993 66.5117 122.764 66.6198 122.621 66.8359C122.48 67.0521 122.41 67.3763 122.41 67.8086ZM127.605 70H126.414V63.9219H127.605V70ZM131.906 68.7031C131.906 69 131.836 69.2513 131.695 69.457C131.557 69.6602 131.35 69.8151 131.074 69.9219C130.798 70.026 130.454 70.0781 130.043 70.0781C129.738 70.0781 129.477 70.0586 129.258 70.0195C129.042 69.9805 128.823 69.9154 128.602 69.8242V68.8398C128.839 68.9466 129.092 69.0352 129.363 69.1055C129.637 69.1732 129.876 69.207 130.082 69.207C130.314 69.207 130.479 69.1732 130.578 69.1055C130.68 69.0352 130.73 68.944 130.73 68.832C130.73 68.7591 130.71 68.694 130.668 68.6367C130.629 68.5768 130.543 68.5104 130.41 68.4375C130.277 68.362 130.069 68.2643 129.785 68.1445C129.512 68.0299 129.286 67.9141 129.109 67.7969C128.935 67.6797 128.805 67.5417 128.719 67.3828C128.635 67.2214 128.594 67.0169 128.594 66.7695C128.594 66.3659 128.75 66.0625 129.062 65.8594C129.378 65.6536 129.798 65.5508 130.324 65.5508C130.595 65.5508 130.853 65.5781 131.098 65.6328C131.345 65.6875 131.599 65.7747 131.859 65.8945L131.5 66.7539C131.284 66.6602 131.079 66.5833 130.887 66.5234C130.697 66.4635 130.503 66.4336 130.305 66.4336C130.13 66.4336 129.999 66.457 129.91 66.5039C129.822 66.5508 129.777 66.6224 129.777 66.7188C129.777 66.7891 129.799 66.8516 129.844 66.9062C129.891 66.9609 129.979 67.0221 130.109 67.0898C130.242 67.1549 130.436 67.2396 130.691 67.3438C130.939 67.4453 131.154 67.5521 131.336 67.6641C131.518 67.7734 131.659 67.9102 131.758 68.0742C131.857 68.2357 131.906 68.4453 131.906 68.7031Z" fill="#35393A"/>
        </g>
        <defs>
        <clipPath id="clip0_1203_2">
        <rect width="187" height="79" fill="white"/>
        </clipPath>
        </defs>
        </svg>