<svg width="200" height="100" viewBox="0 0 200 100" fill="none" xmlns="http://www.w3.org/2000/svg">
<g clip-path="url(#clip0_1_8)">
<path d="M94.415 99.603C95.115 99.603 96.015 99.003 96.015 98.303V82H85.715V87.903C85.715 88.603 84.815 89.203 84.115 89.203H54.415C53.715 89.203 53.415 89.403 53.415 89.803V98.203C53.415 98.903 53.615 99.503 54.415 99.503L94.415 99.603Z" fill="#F27F0D"/>
<path d="M96.015 18V1.403C96.015 0.702996 95.115 0.102997 94.415 0.102997H54.415C53.715 0.102997 53.415 0.402996 53.415 0.702996V9.103C53.415 9.803 53.615 10.403 54.415 10.403H84.115C84.815 10.403 85.715 11.003 85.715 11.703V18H96.015Z" fill="#F27F0D"/>
<path opacity="0.7" d="M53.5 10.2V89.5H63.8V10.2H53.5Z" fill="#F27F0D"/>
<path d="M62.1 0.100006H54.4C53.7 0.100006 53.5 0.700006 53.5 1.40001V10.4H63.8V0.100006H62.1Z" fill="#F27F0D"/>
<path d="M53.5 90.5V98.3C53.5 99 53.7 99.6 54.4 99.6H63.8V89.3H53.5V90.5Z" fill="#F27F0D"/>
<path d="M13.2 67.8V86.6C13.2 94.3 18.1 99.6 26 99.6H42C42.4 99.6 43 99 43 98.3V90.5C43 89.8 42.1 89.3 41.4 89.3H27.7C24.4 89.3 23.5 87.7 23.5 83.9V61.8C23.5 54 20.3 51.1 16.5 49.7C20.4 48.3 23.5 45.4 23.5 37.6V15.3C23.5 11.5 24.2 10.4 27.7 10.4H41.9C42.5 10.2 42.9 9.70001 42.9 9.10001V1.40001C42.9 0.700006 42 0.100006 41.3 0.100006H25.9C18.1 0.100006 13.1 5.20001 13.1 12.7V33.7C13.1 33.7 12.8 37.6 12.7 38.9C12.2 42.4 7.90001 45.4 5.30001 45.3H1.20001C0.500012 45.3 0.200012 45.9 0.200012 46.6V54.3C0.200012 55 0.500012 55.6 1.20001 55.6H5.00001C8.40001 55.6 12.7 58.4 13 62.7C13 64 13.2 67.8 13.2 67.8Z" fill="#FA1D00"/>
<path d="M108 9V18H118V9H108Z" fill="#FFE70E"/>
<path d="M108 82V92H118V82H108Z" fill="#FFE70E"/>
<path d="M116.9 99.6V89.2C131.1 89.2 141 71.5 141 49.8C141 28.1 131.1 10.4 116.9 10.4V0.100006C136.3 0.100006 151.4 22.4 151.4 49.8C151.4 77.2 136.3 99.6 116.9 99.6Z" fill="#FFE70E"/>
<path d="M116.5 0.100006H108.8C108.1 0.100006 107.9 0.700006 107.9 1.40001V10.4H118.2V0.100006H116.5Z" fill="#FFE70E"/>
<path d="M107.8 90.5V98.3C107.8 99 108 99.6 108.7 99.6H118.1V89.3H107.8V90.5Z" fill="#FFE70E"/>
<path d="M169.5 67.8V86.6C169.5 94.3 174.4 99.6 182.2 99.6H198.2C198.8 99.4 199.2 98.9 199.3 98.3V90.5C199.3 89.8 198.3 89.3 197.6 89.3H184C180.7 89.3 179.9 87.9 179.9 84.1V61.8C179.9 59.7 179.4 57.6 178.6 55.7H161.3C166.1 57 168.1 58.7 169.1 62.8C169.3 64.5 169.5 66.1 169.5 67.8Z" fill="#43A047"/>
<path d="M168.8 38.9C167.8 42.3 165.6 44.1 161.6 45.4H177.9C178.9 42.8 179.9 41.1 179.9 37.7V15.3C179.9 11.5 180.6 10.4 184 10.4H198.2C198.8 10.2 199.2 9.70001 199.3 9.10001V1.40001C199.3 0.700006 198.3 0.100006 197.6 0.100006H182.3C174.5 0.100006 169.6 5.20001 169.6 12.7V33.7C169.4 35.5 169.2 37.2 168.8 38.9Z" fill="#43A047"/>
<path d="M171.3 50.6C174.2 51.5 176.7 53.3 178.5 55.7H197.5C198.2 55.7 199.2 55.1 199.2 54.4V46.7C199.2 46 198.2 45.4 197.5 45.4H177.8C176.5 47.9 173.5 49.8 171.3 50.6Z" fill="#26A710"/>
<path d="M157.5 45.4C156.8 45.4 156.6 46 156.6 46.7V54.4C156.6 55.1 156.8 55.7 157.5 55.7H178.5C177.3 53.1 174.4 51.3 172.4 50.5C174.8 49.5 176.7 47.7 177.8 45.3H157.5V45.4Z" fill="#43A047"/>
<path d="M96 20C79.431 20 66 33.432 66 50C66 66.568 79.432 80 96 80C112.568 80 126 66.568 126 50C126 33.432 112.568 20 96 20ZM89.025 68L89.005 67.98L88.988 68L75 53.6L82.029 46.436L89.006 53.62L110.006 32.001L117 39.199L89.025 68Z" fill="#43A047"/>
</g>
<defs>
<clipPath id="clip0_1_8">
<rect width="199.6" height="99.6" fill="white"/>
</clipPath>
</defs>
</svg>
